<svg xmlns="http://www.w3.org/2000/svg" viewBox="0 0 305 169" fill="none" aria-hidden="true">
  <!-- One continuous stroke: in at the upper-right tip, across itself at (173, 84.5),
       around the closed left loop, back through the crossing and out at the lower-right
       tip. The closed loop takes `currentColor` so it inverts with the theme; the branch
       that grows past the crossing is always brand green. -->
  <defs>
    <clipPath id="ramose-mark-asset-branch">
      <rect x="173" y="0" width="132" height="169"/>
    </clipPath>
  </defs>
  <g stroke-width="16" stroke-linecap="butt" stroke-linejoin="round">
    <path d="M305 8.5C251.5 8.5 243.9 22.8 188.1 71.4L157.9 97.6C114.9 135 94.5 146.5 70.5 146.5C32.5 146.5 8 114.5 8 84.5C8 54.5 32.5 22.5 70.5 22.5C94.5 22.5 114.9 34 157.9 71.4L188.1 97.6C243.9 146.2 251.5 160.5 305 160.5" stroke="currentColor"/>
    <path d="M305 8.5C251.5 8.5 243.9 22.8 188.1 71.4L157.9 97.6C114.9 135 94.5 146.5 70.5 146.5C32.5 146.5 8 114.5 8 84.5C8 54.5 32.5 22.5 70.5 22.5C94.5 22.5 114.9 34 157.9 71.4L188.1 97.6C243.9 146.2 251.5 160.5 305 160.5" stroke="#42D37A" clip-path="url(#ramose-mark-asset-branch)"/>
  </g>
</svg>
